<?xml version="1.0" standalone="no"?>
<!DOCTYPE svg PUBLIC "-//W3C//DTD SVG 1.1//EN" "http://www.w3.org/Graphics/SVG/1.1/DTD/svg11.dtd" >
<!--
2013-9-30: Created.
-->
<svg>
<metadata>
Created by iconfont
</metadata>
<defs>

<font id="iconfont" horiz-adv-x="1024" >
  <font-face
    font-family="iconfont"
    font-weight="500"
    font-stretch="normal"
    units-per-em="1024"
    ascent="896"
    descent="-128"
  />
    <missing-glyph />
    
    <glyph glyph-name="lunbo-jiantouzuo" unicode="&#59233;" d="M623.1 126.6c3.7-3.6 8.3-5.4 13.4-5.4s9.7 1.8 13.4 5.4c7.4 7.3 7.4 19 0 26.3L414.7 384l235.1 231.1c7.4 7.3 7.4 19 0 26.3-7.4 7.3-19.4 7.3-26.7 0l-249-244.3c-7.4-7.3-7.4-19 0-26.3l249-244.2z"  horiz-adv-x="1024" />

    
    <glyph glyph-name="lunbo-jiantouyou" unicode="&#59234;" d="M400.9 126.6c-3.7-3.6-8.3-5.4-13.4-5.4s-9.7 1.8-13.4 5.4c-7.4 7.3-7.4 19 0 26.3L609.3 384 374.2 615.1c-7.4 7.3-7.4 19 0 26.3 7.4 7.3 19.4 7.3 26.7 0l249-244.3c7.4-7.3 7.4-19 0-26.3l-249-244.2z"  horiz-adv-x="1024" />

    
    <glyph glyph-name="lunbojiantou1" unicode="&#58896;" d="M682.56464804-33.39581147000001L293.9161334 395.54247518 682.56464804 823.95186122a26.60058295 26.60058295 0 0 0 46.66768892-8.5246308 26.91170049 26.91170049 0 0 0-6.93792989-27.0672597L369.05111225 395.57358666l351.06546946-391.16856989a26.91170049 26.91170049 0 0 0-3.048955-36.21412732 26.56947059 26.56947059 0 0 0-36.15190345 0.09333534l1.64892478-1.64892477z"  horiz-adv-x="1024" />

    
    <glyph glyph-name="sousuo" unicode="&#59007;" d="M474.999467 863.0272c229.853867 0 415.3344-193.467733 415.3344-431.104a440.866133 440.866133 0 0 0-71.611734-242.0736l0.136534-0.136533 189.781333-153.941334a61.098667 61.098667 0 0 0-70.178133-99.669333l-6.826667 4.778667-189.781333 154.0096-3.6864 3.413333a404.343467 404.343467 0 0 0-263.168-97.621333C245.077333 0.750933 59.665067 194.218667 59.665067 431.991467 59.665067 669.559467 245.077333 863.0272 474.999467 863.0272z m0-97.6896c-174.967467 0-317.6448-148.821333-317.6448-333.4144 0-184.661333 142.677333-333.482667 317.6448-333.482667 174.967467 0 317.6448 148.821333 317.6448 333.482667 0 184.593067-142.677333 333.4144-317.6448 333.4144z"  horiz-adv-x="1092" />

    
    <glyph glyph-name="sousuo1" unicode="&#58895;" d="M446.112323 718.454949c137.567677-0.219798 252.612525-104.59798 266.162424-241.493333 13.562828-136.895354-78.778182-261.818182-213.617777-289.008485-134.852525-27.203232-268.386263 52.156768-308.945455 183.608889s25.018182 272.252121 151.738182 325.779394A267.235556 267.235556 0 0 0 446.112323 718.454949m0 62.060607c-182.794343 0-330.989899-148.195556-330.989899-330.989899s148.195556-330.989899 330.989899-330.989899 330.989899 148.195556 330.989899 330.989899-148.195556 330.989899-330.989899 330.989899z m431.321212-793.341415a30.849293 30.849293 0 0 0-21.94101 9.102223l-157.220202 157.220202c-11.752727 12.179394-11.584646 31.534545 0.37495 43.50707 11.972525 11.972525 31.327677 12.140606 43.494141 0.37495l157.220202-157.220202a31.036768 31.036768 0 0 0 6.723232-33.810101 31.004444 31.004444 0 0 0-28.651313-19.174142z m0 0"  horiz-adv-x="1024" />

    
    <glyph glyph-name="lunbotujiantou02" unicode="&#58889;" d="M179.2 896l477.9008-512L179.2-128l187.6992 0L844.8 384 366.8992 896 179.2 896zM179.2 896"  horiz-adv-x="1024" />

    
    <glyph glyph-name="lunbotujiantou021" unicode="&#58893;" d="M844.8-128l-477.90080001 512L844.8 896l-187.6992 0L179.2 384 657.1008-128 844.8-128zM844.8-128"  horiz-adv-x="1024" />

    
    <glyph glyph-name="lunbotujiantou-" unicode="&#58910;" d="M844.8-128L366.9 384 844.8 896H657.1L179.2 384l477.9-512h187.7z m0 0"  horiz-adv-x="1024" />

    
    <glyph glyph-name="lunbotujiantou-1" unicode="&#58911;" d="M179.2 896l477.9-512-477.9-512h187.7l477.9 512L366.9 896H179.2z m0 0"  horiz-adv-x="1024" />

    
    <glyph glyph-name="huafeichongzhi" unicode="&#58937;" d="M719.250286 859.428571 304.749714 859.428571C247.515429 859.428571 201.142857 810.313143 201.142857 749.714286l0-36.571429 0-603.428571L201.142857 91.428571l0-18.285714L201.142857 54.857143l0-36.571429c0-60.598857 46.409143-109.714286 103.606857-109.714286l414.464 0C776.448-91.428571 822.857143-42.313143 822.857143 18.285714l0 36.571429 0 18.285714L822.857143 91.428571l0 18.285714L822.857143 713.142857 822.857143 749.714286C822.857143 810.313143 776.448 859.428571 719.250286 859.428571zM339.309714 822.857143l345.380571 0c45.056 0 83.017143-30.610286 97.28-73.142857L242.029714 749.714286C256.292571 792.210286 294.253714 822.857143 339.309714 822.857143zM684.690286-54.857143 339.309714-54.857143c-57.234286 0-103.606857 49.115429-103.606857 109.714286l552.630857 0C788.333714-5.741714 741.924571-54.857143 684.690286-54.857143zM788.333714 91.428571 235.666286 91.428571 235.666286 713.142857l552.630857 0L788.333714 91.428571 788.333714 91.428571zM566.857143 18.285714 457.142857 18.285714l0-36.571429 109.714286 0L566.857143 18.285714zM493.714286 237.714286l36.571429 0 0 73.142857 109.714286 0 0 36.571429-109.714286 0 0 36.571429 109.714286 0 0 36.571429-83.858286 0L640 504.429714 640 528.457143 638.171429 530.285714l-24.027429 0L512 428.141714 409.856 530.285714 385.828571 530.285714 384 528.457143l0-24.027429L467.858286 420.571429 384 420.571429l0-36.571429 109.714286 0 0-36.571429L384 347.428571l0-36.571429 109.714286 0L493.714286 237.714286z"  horiz-adv-x="1024" />

    
    <glyph glyph-name="miaosha" unicode="&#58915;" d="M860.860433 531.383722c-19.071358 45.088918-46.36805 85.578074-81.132832 120.343879s-75.254961 62.062498-120.343879 81.133855c-46.692439 19.748786-96.278787 29.761837-147.383722 29.761837-51.104935 0-100.691283-10.014074-147.383722-29.761837-0.209778-0.089028-0.415462-0.184195-0.62524-0.273223l7.29515-17.231453 36.322254-87.593987 37.810141 15.678074-27.015284 65.149812c30.04427 8.623401 61.474097 13.101389 93.595678 13.101389 90.200348 0 175.002756-35.126009 238.784408-98.907661 63.780629-63.781652 98.906637-148.583037 98.906637-238.783385s-35.126009-175.002756-98.906637-238.784408c-63.781652-63.780629-148.583037-98.906637-238.784408-98.906637S336.997244 81.434963 273.216615 145.215592c-63.781652 63.781652-98.907661 148.583037-98.907661 238.784408 0 43.38409 8.148587 85.510536 23.680329 124.659161l-37.898145 15.284101c-17.726733-44.506656-26.714432-91.542926-26.714432-139.943262 0-51.104935 10.014074-100.691283 29.761837-147.383722 19.071358-45.088918 46.36805-85.578074 81.133855-120.343879s75.254961-62.061474 120.343879-81.132832c46.691415-19.74981 96.278787-29.762861 147.383722-29.762861 51.104935 0 100.691283 10.013051 147.383722 29.762861 45.088918 19.071358 85.578074 46.36805 120.343879 81.132832s62.061474 75.254961 81.132832 120.343879c19.74981 46.692439 29.762861 96.278787 29.762861 147.383722C890.623293 435.104935 880.610242 484.692307 860.860433 531.383722zM504.329297 306.902064 744.633315 518.765333 717.563796 549.468612 487.986073 347.062739 372.137579 463.638805 343.103312 434.786687 486.729453 290.256966 503.932254 307.352319Z"  horiz-adv-x="1024" />

    
    <glyph glyph-name="home" unicode="&#58880;" d="M950.247 438.57c-20.923 21.71-41.77 43.491-62.61 65.28a13453.363 13453.363 0 0 0-46.407 48.722c-38.498 40.653-76.93 81.365-115.44 122.01-18.179 19.184-36.353 38.374-54.738 57.36-19.205 19.831-38.588 39.49-58.03 59.091-12.843 12.947-27.516 23.424-44.099 31.09-16.168 7.474-32.765 11.32-49.756 11.32-8.751 0-17.61-1.021-26.564-3.092-25.541-5.91-46.802-19.734-65.784-37.209-8.946-8.232-17.097-17.332-25.567-26.076a43348.893 43348.893 0 0 1-49.55-51.238c-17.643-18.27-35.285-36.536-52.884-54.847-18.113-18.846-36.166-37.752-54.257-56.621-36.598-38.165-73.189-76.34-109.813-114.483-17.691-18.425-35.7-36.552-53.091-55.256-12.342-13.273-16.295-29.778-12.969-47.183 3.457-18.086 14.726-31.04 31.247-39.25 13.7-6.81 28.33-9.244 43.474-9.244h0.556c3.988 0.016 7.974 0.021 12.002 0.021 6.456 0 13.017-0.012 19.848-0.012 0-2.572 0-4.482 0.004-6.395 0-100.144-0.036-200.287 0.076-300.432 0.01-7.368 0.235-14.925 1.827-22.067 4.995-22.428 17.322-40.431 35.447-54.367 15.842-12.18 33.607-18.632 53.81-18.632 0.346 0 0.697 0.002 1.046 0.005 10.753 0.118 21.503 0.147 32.257 0.147 10.428 0 20.861-0.027 31.289-0.027 13.585 0 27.17 0.046 40.753 0.259l294.445-0.341c15.91 0.12 31.819 0.15 47.73 0.15 15.178 0 30.356-0.027 45.534-0.027 3.827 0 7.656 0 11.484 0.006h0.198c0.724 0 1.45-0.005 2.175-0.005 2.184 0 4.374 0.044 6.502 0.402 22.413 3.77 40.463 15.115 55.546 31.836 16.66 18.47 24.628 40.1 24.624 64.843-0.012 99.549-0.005 199.098-0.005 298.65v5.996c6.816 0 13.384-0.016 19.859-0.016 3.995 0 7.954 0.006 11.913 0.025 18.748 0.093 36.614 3.446 52.291 14.556 11.345 8.037 19.297 18.739 21.808 32.386 3.7 20.102-1.866 37.81-16.18 52.665zM594.405-1.414l-153.705 0.178v159.37c0 22.624 18.34 40.964 40.964 40.964h71.778c22.624 0 40.964-18.34 40.964-40.964v-159.548z m297.618 401.777c-3.856-0.02-7.712-0.025-11.604-0.025-3.17 0-6.364 0.004-9.599 0.007-3.37 0.004-6.783 0.008-10.26 0.008-33.91 0-61.399-27.489-61.399-61.398v-83.176c-0.002-73.826-0.003-147.651 0.005-221.48 0.002-9.894-2.553-16.764-8.816-23.709-7.293-8.084-13.108-10.804-17.908-11.961l-0.725 0.001h-0.268c-3.805-0.004-7.61-0.006-11.415-0.006-7.571 0-15.142 0.006-22.713 0.013-7.607 0.007-15.214 0.014-22.821 0.014-13.05 0-30.273-0.018-47.936-0.15l-16.267 0.02V158.133c0 53.49-43.366 96.857-96.857 96.857h-71.778c-53.49 0-96.856-43.366-96.856-96.857v-159.305l-12.41 0.014h-0.05c-0.328 0-0.656-0.002-0.983-0.007-14.147-0.222-28.053-0.252-39.79-0.252-5.187 0-10.376 0.006-15.564 0.013-5.242 0.007-10.485 0.015-15.725 0.015-13.266 0-23.422-0.046-32.92-0.15l-0.383-0.003c-6.181 0-10.928 1.711-16.387 5.908-9.276 7.132-11.788 13.891-12.931 18.993-0.137 0.745-0.361 2.876-0.369 8.834-0.09 80.283-0.083 161.925-0.078 240.88l0.003 59.483v0.121c-0.004 1.876-0.004 3.75-0.004 6.273 0 33.91-27.49 61.398-61.399 61.398a10932 10932 0 0 0-10.15 0.006c-3.271 0.004-6.498 0.006-9.698 0.006-4.105 0-8.17-0.004-12.27-0.02h-0.289c-3.438 0-6.458 0.22-9.094 0.667 8.53 9.01 17.223 17.96 26.303 27.307a4636.704 4636.704 0 0 1 18.419 19.036c29.809 31.045 60.087 62.623 89.368 93.16l20.474 21.354c7.07 7.373 14.133 14.75 21.195 22.129a24464.611 24464.611 0 0 0 33.01 34.44c16.339 16.998 33.017 34.27 49.145 50.972l3.641 3.771a43019.683 43019.683 0 0 0 49.481 51.166c2.687 2.775 5.269 5.5 7.766 8.137 5.384 5.684 10.47 11.053 15.288 15.489 13.62 12.538 25.707 19.707 38.036 22.56 4.34 1.004 8.622 1.514 12.726 1.514 7.916 0 15.764-1.85 23.99-5.652 9.724-4.496 18.319-10.58 26.272-18.596 23.355-23.548 41.094-41.611 57.515-58.567 17.78-18.362 35.772-37.35 53.17-55.712l1.104-1.166c20.587-21.728 41.506-43.85 61.737-65.245 17.894-18.922 35.786-37.844 53.694-56.753a13414.562 13414.562 0 0 1 46.616-48.943c19.443-20.328 38.537-40.28 57.952-60.445-2.33-0.341-5.329-0.58-9.194-0.6z"  horiz-adv-x="1024" />

    
    <glyph glyph-name="qiye" unicode="&#58887;" d="M183.467 676.267h147.2v-108.8h-147.2v108.8z m219.733 0h147.2v-108.8H403.2v108.8zM183.467 492.8h147.2V384h-147.2V492.8z m219.733 0h147.2V384H403.2V492.8z m364.8 0h72.533V384H768V492.8z m0-181.333h72.533v-108.8H768v108.8z m-584.533 0h147.2v-108.8h-147.2v108.8z m219.733 0h147.2v-108.8H403.2v108.8zM987.733-19.2V640H695.467V859.733h-659.2v-876.8H0V-89.6h1024v72.533h-36.267z m-878.933 0V787.2h512v-804.267h-512z m586.667 0V567.467H915.2v-584.534H695.467z"  horiz-adv-x="1024" />

    
    <glyph glyph-name="huafeichongzhi1" unicode="&#58906;" d="M425.716581 108.06062a286.652969 286.652969 0 0 0 7.27571 64.006245H151.464822V775.363229h472.308584V377.19938a268.11366 268.11366 0 0 0 59.093266 10.45102V805.466167C682.866672 855.246024 643.025284 896 594.283028 896H180.9552C132.212944 896 92.371557 855.246024 92.371557 805.466167v-784.251521c0-49.767356 39.841387-90.533833 88.583643-90.533833h306.717426a282.727586 282.727586 0 0 0-61.956045 177.379807zM269.538843 850.733083h236.160542v-30.215448H269.538843z m430.742028-506.624431c-127.59995 0-231.272565-105.685312-231.347573-235.948022s103.847632-236.273053 231.647602-236.160542c127.18741 0 230.935033 105.885331 231.035042 235.848011 0.20002 130.26271-103.535102 236.273053-231.347573 236.273054z m105.172762-331.494845a25.164955 25.164955 0 0 0-14.85145-4.20041h-62.981145v-18.326788c0-5.53804-2.25022-10.851059-6.76316-16.076568s-10.338509-7.500732-17.501707-6.86317c-7.163199 0-13.213789 1.63766-18.026759 5.000488s-7.500732 9.313409-8.088289 17.926749V8.413397h-61.143466a21.927139 21.927139 0 0 0-14.851449 5.000488 13.363804 13.363804 0 0 0-4.91298 12.388709 16.726632 16.726632 0 0 0 5.83807 13.313799 20.439494 20.439494 0 0 0 13.926359 5.000488h61.143466v32.190641h-61.143466c-5.938079 0-10.751049 1.837679-14.338899 5.525539a17.989255 17.989255 0 0 0-5.42553 12.901259q0 7.363218 5.83807 13.826349a18.114267 18.114267 0 0 0 13.926359 6.450629h61.143466l0.92509 19.251879c-10.751049 11.063579-20.689519 21.402088-29.702898 31.253049-7.775759 8.600839-15.001464 16.589119-21.602108 23.864829l-13.413809 13.001268a53.317702 53.317702 0 0 0-8.088289 15.151479c-2.350229 6.450629-1.250122 13.001269 3.58785 19.764428 5.425529 6.138099 11.98867 7.78826 19.764429 5.000488a55.967961 55.967961 0 0 0 18.839338-10.55103 171.179202 171.179202 0 0 1 12.588728-13.826349l18.951849-19.251878 24.264868-24.777418c10.238499 9.825959 19.464399 18.639319 27.852717 26.627598 7.163199 6.76316 14.438909 13.313799 21.614609 19.764429s12.288699 10.851059 15.26399 13.313799a26.127549 26.127549 0 0 0 18.026759 7.37572 19.501903 19.501903 0 0 0 16.176578-8.30081c7.775759-9.213399 4.81297-19.864438-9.01338-32.153138a224.784432 224.784432 0 0 1-16.176578-16.076568 1030.361783 1030.361783 0 0 0-21.614609-22.502196c-8.40082-9.213399-17.714228-18.75183-27.865219-28.465277v-17.501708h58.480706c8.40082 0 14.538919-1.95019 18.439299-5.938079a18.626817 18.626817 0 0 0 5.83807-13.313799 20.589509 20.589509 0 0 0-5.438031-14.263892c-3.58785-4.00039-9.625939-5.73806-18.026758-5.000488l-58.480706-0.92509-0.925091-31.253049h57.505611q25.202459 0 25.189958-19.351889c0.71257-6.038089-0.912589-10.551029-4.81297-13.313799z m0 0"  horiz-adv-x="1024" />

    
    <glyph glyph-name="huafeichongzhi2" unicode="&#58946;" d="M709.57568 781.312H312.512512C270.57152 781.312 231.424 744.96 231.424 700.224512v-612.373504c0-41.939968 36.352-78.291968 81.088512-78.291968H717.824V34.72384H312.512512c-30.756864 0-53.124096 25.168896-53.124096 53.128192v612.37248c0 30.75584 25.163776 53.124096 53.124096 53.124096h397.063168c30.75584 0 55.923712-25.163776 55.923712-53.124096v-612.373504c0-30.75584-25.167872-53.128192-55.923712-53.128192-5.592064 0-8.387584-25.163776 0-25.163776 41.785344-1.880064 81.088512 33.557504 81.088512 75.497472v615.168c0 41.939968-39.148544 81.087488-81.088512 81.087488z m-134.219776-58.719232h-131.42016c-5.592064 0-13.979648-5.592064-13.979648-13.980672 0-8.387584 8.387584-13.983744 13.979648-13.983744h131.42016c5.592064 0 13.979648 5.59616 13.979648 13.983744 0 8.388608-8.387584 13.980672-13.979648 13.980672zM362.84416 554.820608c-5.592064-5.592064-5.592064-13.980672 0-16.776192l67.111936-67.111936c2.79552-2.796544 5.592064-2.796544 8.387584-2.796544 2.796544 0 5.592064 0 8.388608 2.796544 5.592064 5.592064 5.592064 13.983744 0 16.780288l-67.10784 67.10784c-5.592064 5.592064-11.188224 5.592064-16.780288 0z m212.511744-83.888128c2.79552-2.796544 5.592064-2.796544 8.387584-2.796544s5.592064 0 8.39168 2.796544l67.10784 67.111936c5.592064 5.592064 5.592064 13.979648 0 16.776192-5.592064 2.79552-13.983744 5.592064-16.780288 0l-67.10784-67.10784c-5.59104-5.592064-5.59104-11.188224 0.001024-16.780288z m92.275712-41.939968c5.592064 0 13.979648 5.592064 13.979648 13.979648 0 8.388608-5.592064 13.980672-13.979648 13.980672H354.455552c-5.59104 0-13.979648-5.592064-13.979648-13.980672 0-8.387584 5.592064-13.979648 13.979648-13.979648h145.404928v-86.684672H354.455552c-5.59104 0-13.979648-5.59104-13.979648-13.979648 0-8.38656 5.592064-13.978624 13.979648-13.978624h145.404928v-114.648064c0-5.592064 5.59104-13.979648 13.979648-13.979648 8.387584 0 13.979648 5.59104 13.979648 13.979648v114.64704h139.81184c5.592064 0 13.979648 5.592064 13.979648 13.978624 0 8.388608-5.592064 13.979648-13.979648 13.979648H525.024256v86.684672h142.60736z m0 0"  horiz-adv-x="1024" />

    
    <glyph glyph-name="qiye1" unicode="&#59036;" d="M1026.058521 896H1023.542551L723.455886 842.592808C698.867992 840.534286 679.312039 816.632566 679.312039 787.355819v-148.89971l-146.498101 22.758097h-2.287246c-26.87514 0-48.718338-24.816618-48.718338-55.351351v-678.511504c0-30.534733 21.843199-55.351351 48.718338-55.351351H1025.944159c26.188966 0 47.460353 24.816618 47.460353 55.351351V840.648649c0.114362 30.534733-21.157025 55.351351-47.345991 55.351351zM855.544338-49.31874H549.396471V579.330802l306.262229-47.460353v-581.189189z m150.500781 0h-83.027027V552.570025c0 29.39111-20.356489 53.521555-45.85928 55.236989l-130.373018 20.242126V767.113692l259.259325 46.202368v-862.6348zM639.285236 366.960018h126.370337c18.641054 0 33.736877 17.611794 33.736877 39.34063S784.296627 445.641278 765.655573 445.641278H639.285236c-18.641054 0-33.736877-17.611794-33.736878-39.34063s15.095823-39.34063 33.736878-39.34063zM639.285236 238.645522h126.370337c18.641054 0 33.736877 17.611794 33.736877 39.340629s-15.095823 39.34063-33.736877 39.34063H639.285236c-18.641054 0-33.736877-17.611794-33.736878-39.34063S620.644181 238.645522 639.285236 238.645522z"  horiz-adv-x="1562" />

    
    <glyph glyph-name="ArtboardCopy" unicode="&#58881;" d="M512 896C229.76 896 0 666.3679999999999 0 384c0-282.24 229.76-512 512-512s512 229.76 512 512c0 282.368-229.76 512-512 512z m0-969.024C259.968-73.024 54.976 132.03200000000004 54.976 384A457.6 457.6 0 0 0 512 841.088 457.6 457.6 0 0 0 969.024 384c0-251.968-204.992-457.024-457.024-457.024zM635.84 651.84l-81.28-149.824c-21.76-40.576-34.944-67.584-39.808-80.96h-1.408c-14.272 32.512-54.592 109.44-121.024 230.784H315.84l142.208-244.288H341.44v-54.016H478.08v-74.368H341.44v-54.656H478.08v-108.288h67.84v108.288h131.84v54.656H545.92V353.53599999999994h131.84v54.016H564.608l143.616 244.288h-72.32z"  horiz-adv-x="1024" />

    
    <glyph glyph-name="Fma" unicode="&#58882;" d="M507.0315905 805.23644435c-231.64242622 0-419.3973503-187.75492176-419.39735029-419.31375279 0-231.64242622 187.75492176-419.48094545 419.39735029-419.48094546s419.3973503 187.83851695 419.39735028 419.48094546c0 231.55883101-187.75492176 419.31375508-419.39735028 419.31375279z m0-762.72302448c-189.67761333 0-343.40927168 153.73165837-343.40927173 343.40927169 0 189.59401812 153.73165837 343.32567653 343.40927173 343.32567418 189.67761333 0 343.40927168-153.73165837 343.40927167-343.32567418 0-189.67761333-153.73165837-343.40927168-343.40927167-343.40927169zM725.6336797 390.2489112v-64.01092386H403.97165625v-205.82412739h-64.01092391v464.34075427h64.01092391v-0.76090196h314.34784689v-64.01092388h-314.34784689v-129.73387718z"  horiz-adv-x="1024" />

    
    <glyph glyph-name="zhuye" unicode="&#58890;" d="M904.45123 406.158672C797.500383 516.138506 689.768753 625.357 582.221318 734.756619c-20.268626 20.617573-44.738947 30.486338-73.79982 29.354562-29.351492-1.143033-51.260477-15.84078-71.074755-36.090986C334.303902 622.708684 230.941789 517.712351 127.723963 412.573779c-5.315052-5.414313-10.914584-10.697643-15.365966-16.784268-12.106736-16.551978-13.753235-34.152844 0.197498-50.03865 13.870916-15.797801 31.027667-17.869996 48.974411-6.02625 7.161097 4.725628 13.975293 9.974166 28.293393 20.263509 0-25.102724-0.00307-40.23026 0.002047-55.356772 0.021489-65.314565-0.661056-130.639363 0.260943-195.941648 0.945535-66.991764 37.852096-103.015212 105.497753-104.244202 34.924417-0.635473 69.877487-0.62217 104.802928-0.00921 43.273573 0.76134 54.16769 11.334139 55.037501 53.504588 0.688685 33.401738-0.185218 66.836221 0.37146 100.244099 0.191358 11.483542 2.608407 22.928199 4.275373 36.582173 26.123984 0 48.803519-0.037862 71.484078 0.00921 24.301476 0.050142 48.668443-0.89744 72.887031 0.566912 26.16287 1.582031 42.014906 18.021445 40.753169 39.244816-1.172709 19.747763-15.739473 34.362622-40.295751 34.791387-62.253856 1.088798-124.547621 0.86367-186.809663 0.040932-23.25668-0.305969-36.43891-14.351869-37.169551-37.625946-0.904603-28.834722-0.406253-57.7114-0.469698-86.570681-0.041956-19.334347-0.00921-38.669718-0.00921-60.587913-18.724457-1.099031-32.074509-2.452865-45.435819-2.564405-60.644195-0.50449-69.605288 7.983835-69.777203 67.104327-0.25685 88.098477 0.722454 176.211281-0.683569 264.286222-0.348947 21.816888 6.352685 36.70497 21.410636 51.685149C347.326497 526.205792 407.463132 588.50672 468.341664 650.065751c39.398312 39.83731 50.401923 40.036855 89.12383 0.782829 92.796476-94.082772 185.224562-188.528817 277.884938-282.744619 9.565866-9.727549 18.256806-21.975501 29.972639-27.447119 10.904351-5.091972 27.89942-7.457856 37.442774-2.26253 9.677407 5.270027 18.419512 21.209044 18.554588 32.580023C921.460626 382.757706 913.268036 397.091156 904.45123 406.158672zM835.717799 179.64370599999995c0 30.318516 1.566682 60.745503-0.497327 90.921779-1.6465 24.080441-17.629519 37.854143-37.658691 37.890982-20.269649 0.036839-33.938973-13.145391-37.667901-37.975916-1.563612-10.412141-1.016143-21.173229-1.054005-31.776727-0.119727-33.358759 0.428765-66.725704-0.193405-100.073206-0.87595-46.886867-9.485025-55.398728-56.367799-56.55404-31.81766-0.784876-63.939241 1.523703-95.337345-2.334161-12.121062-1.488911-27.311019-14.097066-32.406061-25.518187-4.256954-9.54233 0.404206-28.218692 8.025791-36.475749 7.834432-8.487302 23.913643-12.285814 36.607756-12.817933 37.84084-1.592264 75.806523-1.280156 113.694435-0.419556 63.584154 1.443885 100.788497 38.437427 103.279225 102.354156 0.943488 24.223704 0.153496 48.514947 0.153496 72.77549C836.103586 179.64268200000004 835.910181 179.64268200000004 835.717799 179.64370599999995z"  horiz-adv-x="1024" />

    
    <glyph glyph-name="qian" unicode="&#58891;" d="M694.265 609.012L512 426.746 329.733 609.012c-8.288 8.287-21.725 8.286-30.013-0.001-8.286-8.287-8.286-21.724 0-30.012l161.045-161.044H352.131c-11.721 0-21.221-9.502-21.221-21.221s9.501-21.221 21.22-21.221h139.002v-89.13H363.804c-11.721 0-21.222-9.503-21.222-21.222s9.502-21.22 21.222-21.22h127.329v-131.574c0-11.718 9.502-21.22 21.221-21.22s21.221 9.502 21.221 21.22V243.94h127.328c11.72 0 21.222 9.503 21.222 21.221s-9.502 21.222-21.222 21.222H533.575v89.13h139c11.72 0 21.221 9.502 21.221 21.221s-9.502 21.221-21.22 21.221H563.233L724.278 579c8.287 8.288 8.287 21.725 0 30.013-8.29 8.287-21.723 8.287-30.013 0zM512 830.71c-246.317 0-446.71-200.393-446.71-446.709 0-246.317 200.393-446.71 446.71-446.71s446.71 200.393 446.71 446.71C958.71 630.317 758.317 830.71 512 830.71z m0-850.976c-222.914 0-404.267 181.353-404.267 404.267S289.086 788.266 512 788.266 916.267 606.914 916.267 384 734.913-20.266 512-20.266z"  horiz-adv-x="1024" />

    
    <glyph glyph-name="gouwuche" unicode="&#58883;" d="M367.1 145.5q17.1 0 32.4-6.3t27-17.55 18-26.55 6.3-32.4-6.3-32.4-18-26.55-27-18-32.4-6.75q-18 0-32.85 6.75t-26.55 18-18 26.55-6.3 32.4 6.3 32.4 18 26.55 26.55 17.55 32.85 6.3zM741.5 143.70000000000005q17.1 0 32.85-6.3t27-17.55 18-26.55 6.75-32.4-6.75-32.4-18-26.55-27-18-32.85-6.75-32.4 6.75-26.55 18-18 26.55-6.75 32.4 6.75 32.4 18 26.55 26.55 17.55 32.4 6.3zM892.7 654.9q25.2 0 39.15-6.75t19.8-16.65 5.4-21.15-3.15-19.35-11.25-33.3-19.35-55.35-21.15-59.85-15.75-46.8q-11.7-36-29.7-49.95t-44.1-13.95l-30.6 0-58.5 0-76.5 0-83.7 0-223.2 0 13.5-81 453.6 0q43.2 0 43.2-36.9 0-18-8.55-31.05t-33.75-13.05l-43.2 0-83.7 0-103.5 0-105.3 0-86.4 0-49.5 0q-18 0-30.15 8.1t-20.25 21.15-13.05 28.35-7.65 28.8q-0.9 5.4-4.95 26.1t-9.9 51.75-13.05 69.3-14.4 76.95q-17.1 90.9-38.7 202.5l-67.5 0q-13.5 0-22.5 6.75t-14.85 16.2-8.1 20.25-2.25 19.8q0 18 12.15 29.7t32.85 11.7l19.8 0 18 0 22.5 0 30.6 0q18 0 28.8-5.4t17.1-13.5 9-17.1 4.5-15.3q1.8-7.2 3.6-20.25t3.6-26.55q2.7-16.2 5.4-34.2l615.6 0z"  horiz-adv-x="1024" />

    
    <glyph glyph-name="zhuye1" unicode="&#59035;" d="M861.016273 401.818743l-331.684048 331.319159c-9.608742 9.487112-25.055707 9.487112-34.66445 0l-331.684048-331.319159c-15.446965-15.446965-4.500297-41.718969 17.27141-41.718969h53.152156v-281.329374c0-28.096449 22.866374-50.962822 50.962822-50.962822h125.521796v101.682385c0 28.096449 22.866374 50.962822 50.962822 50.962822h101.925645c28.096449 0 50.962822-22.866374 50.962822-50.962822v-101.682385h124.792018c28.096449 0 50.962822 22.866374 50.962822 50.962822V359.978145h54.003564c22.014966 0 32.840005 26.393633 17.514669 41.840598z"  horiz-adv-x="1024" />

    
    <glyph glyph-name="rengongkefu" unicode="&#58980;" d="M805.440892 560.018641a296.427831 296.427831 0 0 1-587.035955 0A134.715429 134.715429 0 0 0 296.378227 437.804804v-53.886172a134.715429 134.715429 0 1 0-269.430859 0v53.886172a134.715429 134.715429 0 0 0 111.328831 132.667755 377.257089 377.257089 0 0 0 747.293431 0A134.715429 134.715429 0 0 0 996.89846 437.804804v-53.886172a134.715429 134.715429 0 0 0-111.32883-132.667755 377.472633 377.472633 0 0 0-317.389552-321.161584c-10.669462-18.15964-29.960712-29.852939-54.963895-31.038435-40.306856-1.83213-69.459275 29.42185-69.459276 68.004349 0 37.235345 30.984549 67.14217 68.166007 67.14217 20.207314 0 37.72032-9.160649 49.575278-23.332712a296.589489 296.589489 0 0 1 243.9427 250.840129A134.715429 134.715429 0 0 0 727.467602 383.918632v53.886172a134.715429 134.715429 0 0 0 77.97329 122.213837zM161.662798 491.690975a53.886172 53.886172 0 0 1-53.886172-53.886171v-53.886172a53.886172 53.886172 0 0 1 107.772344 0v53.886172a53.886172 53.886172 0 0 1-53.886172 53.886171z m700.520233 0a53.886172 53.886172 0 0 1-53.886172-53.886171v-53.886172a53.886172 53.886172 0 0 1 107.772344 0v53.886172a53.886172 53.886172 0 0 1-53.886172 53.886171z"  horiz-adv-x="1024" />

    
    <glyph glyph-name="Fma1" unicode="&#58990;" d="M512 880C238.4 880 16 657.6 16 384s222.4-496 496-496 496 222.4 496 496S785.6 880 512 880z m0-952C260-72 56 132 56 384S260 840 512 840s456-204 456-456-204-456-456-456zM763.2 600l-32-101.6H482.4v-100h264l-39.2-103.2H482.4v-172H352V600h411.2z"  horiz-adv-x="1024" />

    
    <glyph glyph-name="xiaomi" unicode="&#60607;" d="M737.627119 54.237288000000035V522.847458c0 112.813559-86.779661 190.915254-190.915255 190.915254H0v-659.525424h156.20339V566.237288c0 8.677966 8.677966 8.677966 8.677966 8.677966h312.40678c60.745763 0 104.135593-43.389831 104.135593-104.135593v-416.542373h156.20339z m-286.372882 0H295.050847h-8.677966V453.423729l8.677966 8.677966h147.525424l8.677966-8.677966v-399.186441z m572.745763 0h-156.20339V713.762712h156.20339v-659.525424z"  horiz-adv-x="1024" />

    
    <glyph glyph-name="qian1" unicode="&#59172;" d="M512 896C229.23 896 0 666.77 0 384s229.23-512 512-512 512 229.23 512 512S794.77 896 512 896z m311.12-823.13a438.4 438.4 0 1 0 94.37 139.88 438.62 438.62 0 0 0-94.37-139.88zM713.3 500.43H548v2.13l107.38 107.41a36 36 0 1 1-50.89 50.91l-92.47-92.47-92.53 92.47a36 36 0 1 1-50.91-50.91L476 502.56v-2.15H310.69a36 36 0 0 1 0-72H476v-80.38H341.85a36 36 0 0 1 0-72H476v-143.47a36 36 0 0 1 72 0V276.05h134.14a36 36 0 0 1 0 72H548v80.38h165.3a36 36 0 0 1 0 72z"  horiz-adv-x="1024" />

    
    <glyph glyph-name="rengongkefu1" unicode="&#58884;" d="M698.77535431 474.70266756a188.67654331 188.67654331 0 0 1-373.64883859 1e-8A85.74647457 85.74647457 0 0 0 374.75657501 396.91346596v-34.29859008a85.74647457 85.74647457 0 1 0-171.49294978 0v34.29859008a85.74647457 85.74647457 0 0 0 70.86088689 84.44312849 240.12442842 240.12442842 0 0 0 475.65284581 0A85.74647457 85.74647457 0 0 0 820.63824418 396.91346596v-34.29859008a85.74647457 85.74647457 0 0 0-70.86088626-84.4431285 240.26162236 240.26162236 0 0 0-202.0186949-204.41959618c-6.79112079-11.55862489-19.07001633-19.00141872-34.9845616-19.75598783-25.65534496-1.16615215-44.21088217 18.72703024-44.2108828 43.28482064 0 23.70032585 19.72168937 42.73604303 43.38771608 42.73604305 12.86197097 0 24.00901281-5.83076016 31.55470273-14.8512892a188.77943875 188.77943875 0 0 1 155.2697169 159.65993578A85.74647457 85.74647457 0 0 0 649.14529504 362.61487588v34.29859008a85.74647457 85.74647457 0 0 0 49.63005929 77.7892016zM289.01010043 431.2120554a34.29859009 34.29859009 0 0 1-34.29859008-34.29858944v-34.29859008a34.29859009 34.29859009 0 0 1 68.59718016 0v34.29859008a34.29859009 34.29859009 0 0 1-34.29859008 34.29858944z m445.88166917 0a34.29859009 34.29859009 0 0 1-34.29859007-34.29858944v-34.29859008a34.29859009 34.29859009 0 0 1 68.59718016 0v34.29859008a34.29859009 34.29859009 0 0 1-34.29859009 34.29858944z"  horiz-adv-x="1024" />

    
    <glyph glyph-name="shouhoufuwu" unicode="&#58903;" d="M831.488 558.08c-6.144 4.096-14.336 2.048-20.48-4.096l-102.4-92.16L614.4 558.08l92.16 106.496c4.096 6.144 6.144 14.336 4.096 20.48s-10.24 12.288-18.432 12.288h-6.144c-57.344 0-155.648-4.096-198.656-49.152L479.232 640c-47.104-47.104-55.296-126.976-30.72-186.368l-235.52-241.664c-32.768-32.768-32.768-83.968 0-116.736l28.672-28.672c16.384-16.384 36.864-24.576 57.344-24.576s40.96 8.192 57.344 24.576l239.616 241.664c22.528-12.288 53.248-20.48 79.872-20.48 40.96 0 81.92 16.384 112.64 47.104l8.192 8.192c47.104 49.152 47.104 151.552 47.104 196.608 0 8.192-4.096 14.336-12.288 18.432zM768 369.664l-8.192-8.192c-22.528-22.528-53.248-34.816-83.968-34.816-16.384 0-36.864 2.048-51.2 8.192-12.288 6.144-24.576 12.288-34.816 22.528L327.68 93.184c-8.192-8.192-18.432-12.288-28.672-12.288s-20.48 4.096-28.672 12.288l-28.672 28.672c-16.384 16.384-16.384 43.008 0 59.392l256 262.144c-8.192 12.288-14.336 26.624-18.432 40.96-10.24 38.912-4.096 94.208 26.624 126.976l8.192 8.192c26.624 26.624 96.256 34.816 133.12 36.864l-75.776-86.016c-6.144-8.192-6.144-20.48 0-26.624l118.784-120.832c8.192-8.192 18.432-8.192 26.624 0l83.968 75.776c0-45.056-8.192-102.4-32.768-129.024z"  horiz-adv-x="1024" />

    
    <glyph glyph-name="huafeichongzhi3" unicode="&#58923;" d="M465.272471 384l-45.010824 39.408941a15.887059 15.887059 0 0 0 0.030118 23.94353 20.811294 20.811294 0 0 0 27.376941-0.045177l64.828235-56.771765 63.36753 55.491765a19.275294 19.275294 0 0 0 25.359058 0.030118 14.712471 14.712471 0 0 0 0.015059-22.15153L555.685647 384H617.411765a15.058824 15.058824 0 0 0 0-30.117647h-90.352941v-60.235294h90.352941a15.058824 15.058824 0 0 0 0-30.117647h-90.352941v-89.840941a15.058824 15.058824 0 1 0-30.117648 0V263.529412h-90.352941a15.058824 15.058824 0 0 0 0 30.117647h90.352941v60.235294h-90.352941a15.058824 15.058824 0 0 0 0 30.117647h58.684236zM286.117647 790.588235h451.614118a90.352941 90.352941 0 0 0 90.352941-90.352941v-0.150588l-1.039059-632.470588a90.352941 90.352941 0 0 0-90.352941-90.202353H286.117647a90.352941 90.352941 0 0 0-90.352941 90.352941V700.235294a90.352941 90.352941 0 0 0 90.352941 90.352941z m0-30.117647a60.235294 60.235294 0 0 1-60.235294-60.235294v-632.470588a60.235294 60.235294 0 0 1 60.235294-60.235294h450.575059a60.235294 60.235294 0 0 1 60.235294 60.129882l1.054118 632.470588V700.235294a60.235294 60.235294 0 0 1-60.235294 60.235294H286.117647z m150.467765-135.529412h150.829176a14.938353 14.938353 0 0 0 0-29.876705H436.585412a14.938353 14.938353 0 0 0 0 29.876705z"  horiz-adv-x="1024" />

    
    <glyph glyph-name="renwu" unicode="&#58885;" d="M811.41094971 154.77108765000003h0.15078735a323.33670044 323.33670044 0 0 1-144.16094971 270.39221191 220.8515625 220.8515625 0 0 1 43.1515503 131.68515015c0 120.89685059-96.03671265 218.89297485-214.5234375 218.89297485-118.42657471 0-214.49295044-97.99530029-214.49295044-218.89297485 0-49.41952515 16.06091308-95.04299927 43.15155029-131.68515015A323.33670044 323.33670044 0 0 1 180.52655029 154.77026366999996h0.12112427v-102.45547485l-0.06097412-1.265625c0-15.36795044 12.17422485-27.75311279 27.2109375-27.7531128a27.48202515 27.48202515 0 0 1 27.18127441 27.72344971l-0.06015014 1.29528809V163.08828734999997a267.37811279 267.37811279 0 0 0 128.70153808 221.54452515 210.90701294 210.90701294 0 0 1 132.40859986-46.67816162 210.90701294 210.90701294 0 0 1 132.40859985 46.64767456 267.34844971 267.34844971 0 0 0 128.73202515-221.42340088v-110.89297485c-0.02966309-0.39221191-0.09063721-0.81408692-0.09063721-1.23596192 0-15.36795044 12.17422485-27.75311279 27.2109375-27.75311279a27.48202515 27.48202515 0 0 1 27.18127441 27.72344971l-0.06015014 1.29528808V154.77108765000003zM496.02890015 397.7109375c-86.12265015 0-155.94296265 71.23672485-155.94296265 159.13751221s69.8203125 159.13668823 155.94296265 159.13668823 155.97344971-71.23590088 155.9734497-159.13668823-69.85079956-159.10702515-155.9734497-159.10702515z"  horiz-adv-x="1024" />

    
    <glyph glyph-name="changyongtubiao-xianxingdaochu-zhuanqu-" unicode="&#59225;" d="M858.5728 597.4016L650.24 805.632a30.72 30.72 0 0 1-21.7088 8.96h-389.12a92.16 92.16 0 0 1-92.16-92.16v-628.0192a92.16 92.16 0 0 1 92.16-92.16h535.9616a92.16 92.16 0 0 1 92.16 92.16v481.28a30.72 30.72 0 0 1-8.96 21.7088zM369.2032 63.6928v35.84a30.72 30.72 0 0 0 30.72 30.72h215.04a30.72 30.72 0 0 0 30.72-30.72v-35.84z m436.8896 30.72a30.72 30.72 0 0 0-30.72-30.72h-68.2496v35.84a92.16 92.16 0 0 1-92.16 92.16h-215.04a92.16 92.16 0 0 1-92.16-92.16v-35.84H239.5136a30.72 30.72 0 0 0-30.72 30.72V722.432a30.72 30.72 0 0 0 30.72 30.72h376.3712l190.208-190.208zM338.4832 669.5424a30.72 30.72 0 0 1-30.72-30.72v-191.1296a30.72 30.72 0 0 1 61.44 0V638.8224a30.72 30.72 0 0 1-30.72 30.72zM428.3904 669.5424a30.72 30.72 0 0 1-30.72-30.72v-191.1296a30.72 30.72 0 0 1 61.44 0V638.8224a30.72 30.72 0 0 1-30.72 30.72z"  horiz-adv-x="1024" />

    
    <glyph glyph-name="qiye2" unicode="&#58892;" d="M928 64h-32V512c0 70.4-57.6 128-128 128H576v64c0 70.4-57.6 128-128 128H192c-70.4 0-128-57.6-128-128v-640H32c-17.92 0-32-14.08-32-32s14.08-32 32-32h896c17.92 0 32 14.08 32 32s-14.08 32-32 32zM512 640v-576H128V704c0 35.2 28.8 64 64 64h256c35.2 0 64-28.8 64-64v-64z m320-576H576V576h192c35.2 0 64-28.8 64-64v-448zM416 640H224c-17.92 0-32-14.08-32-32s14.08-32 32-32h192c17.92 0 32 14.08 32 32s-14.08 32-32 32z m0-192H224c-17.92 0-32-14.08-32-32s14.08-32 32-32h192c17.92 0 32 14.08 32 32s-14.08 32-32 32z m0-192H224c-17.92 0-32-14.08-32-32s14.08-32 32-32h192c17.92 0 32 14.08 32 32s-14.08 32-32 32z m320 192h-64c-17.92 0-32-14.08-32-32s14.08-32 32-32h64c17.92 0 32 14.08 32 32s-14.08 32-32 32z m0-192h-64c-17.92 0-32-14.08-32-32s14.08-32 32-32h64c17.92 0 32 14.08 32 32s-14.08 32-32 32z"  horiz-adv-x="1024" />

    
    <glyph glyph-name="daohang-icon-xuanzhong-shouhoufuwu" unicode="&#58886;" d="M1044.058353 125.831529l-298.285177 272.203295a324.427294 324.427294 0 0 1 28.190118 132.397176c0 194.921412-173.236706 353.039059-387.072 353.039059-67.162353 0-130.288941-15.661176-185.404235-42.947765l220.882823-201.487059a32.948706 32.948706 0 0 0 11.14353-24.455529 32.948706 32.948706 0 0 0-11.14353-24.395294L321.475765 498.085647a40.478118 40.478118 0 0 0-53.609412 0L47.164235 699.452235A327.077647 327.077647 0 0 1 0 530.371765c0-194.921412 173.236706-353.039059 387.072-353.039059 59.271529 0 115.350588 12.167529 165.647059 33.91247l292.562823-266.902588c53.609412-48.850824 141.010824-48.850824 194.56 0l4.336942 3.915294c25.660235 23.491765 40.056471 55.416471 40.05647 88.786824 0 33.370353-14.456471 65.355294-40.176941 88.786823z"  horiz-adv-x="1084" />

    
    <glyph glyph-name="qiye3" unicode="&#59064;" d="M1007.623824-40.43165h-50.18881V579.398866a45.509975 45.509975 0 0 1-23.496442 40.370928l-253.603056 148.290929a47.299693 47.299693 0 0 1-46.992884 0.613617 48.01558 48.01558 0 0 1-23.496442-40.370927v-767.533395h-53.205763V848.751442a47.5298 47.5298 0 0 1-66.066165 43.464583L95.251099 721.553619a47.299693 47.299693 0 0 1-28.712192-43.464583v-718.929764H16.91258a16.363137 16.363137 0 0 1-16.260867-16.465407v-54.202891a16.490974 16.490974 0 0 1 16.260867-16.465407h990.097626a16.363137 16.363137 0 0 1 16.260867 16.465407v54.202891a15.340441 15.340441 0 0 1-15.672817 16.874485zM274.22291 16.788195a16.312002 16.312002 0 0 0-16.260868-16.260867H205.472167a16.490974 16.490974 0 0 0-16.465407 16.260867v52.592145a16.542109 16.542109 0 0 0 16.465407 16.465407h52.617712a16.363137 16.363137 0 0 0 16.260868-16.465407z m0 132.515842a16.312002 16.312002 0 0 0-16.260868-16.260867H205.472167a16.490974 16.490974 0 0 0-16.465407 16.260867v52.592145a16.542109 16.542109 0 0 0 16.465407 16.465407h52.617712a16.363137 16.363137 0 0 0 16.260868-16.465407z m0 132.311303a16.312002 16.312002 0 0 0-16.260868-16.260867H205.472167a16.490974 16.490974 0 0 0-16.465407 16.260867v52.617713a16.363137 16.363137 0 0 0 16.465407 16.260867h52.617712a16.312002 16.312002 0 0 0 16.260868-16.260867z m0 132.950489a16.312002 16.312002 0 0 0-16.260868-16.260868H205.472167a16.490974 16.490974 0 0 0-16.465407 16.260868v52.592145a16.542109 16.542109 0 0 0 16.465407 16.465406h52.617712a16.363137 16.363137 0 0 0 16.260868-16.465406z m0 132.515842a16.490974 16.490974 0 0 0-16.260868-16.465407H205.472167a16.542109 16.542109 0 0 0-16.465407 16.465407V599.673816a16.542109 16.542109 0 0 0 16.465407 16.414272h52.617712a16.363137 16.363137 0 0 0 16.260868-16.465407z m160.128636-530.293476a16.363137 16.363137 0 0 0-16.465407-16.260867h-52.592145a16.490974 16.490974 0 0 0-16.465406 16.260867v52.592145a16.542109 16.542109 0 0 0 16.465406 16.465407H417.400359a16.542109 16.542109 0 0 0 16.465406-16.465407z m0 132.515842a16.363137 16.363137 0 0 0-16.465407-16.260867h-52.592145a16.490974 16.490974 0 0 0-16.465406 16.260867v52.592145a16.542109 16.542109 0 0 0 16.465406 16.465407H417.400359a16.542109 16.542109 0 0 0 16.465406-16.465407z m0 132.311303a16.363137 16.363137 0 0 0-16.465407-16.260867h-52.592145a16.490974 16.490974 0 0 0-16.465406 16.260867v52.617713a16.363137 16.363137 0 0 0 16.465406 16.260867H417.400359a16.490974 16.490974 0 0 0 16.465406-16.260867z m0 132.950489a16.363137 16.363137 0 0 0-16.465407-16.260868h-52.592145a16.490974 16.490974 0 0 0-16.465406 16.260868v52.592145a16.542109 16.542109 0 0 0 16.465406 16.465406H417.400359a16.542109 16.542109 0 0 0 16.465406-16.465406z m0 132.515842a16.542109 16.542109 0 0 0-16.465407-16.465407h-52.592145a16.542109 16.542109 0 0 0-16.465406 16.465407V599.673816a16.542109 16.542109 0 0 0 16.465406 16.414272H417.400359a16.542109 16.542109 0 0 0 16.465406-16.465407z m0 132.950488a16.542109 16.542109 0 0 0-16.465407-16.465407h-52.592145a16.542109 16.542109 0 0 0-16.465406 16.465407V732.803276a16.363137 16.363137 0 0 0 16.465406 16.260867H417.400359a16.490974 16.490974 0 0 0 16.465406-16.260867l0.409079-52.796684z m390.746598-663.243964a16.363137 16.363137 0 0 0-16.465407-16.260867h-52.592145a16.312002 16.312002 0 0 0-16.260867 16.260867v52.592145a16.490974 16.490974 0 0 0 16.260867 16.465407H808.581602a16.542109 16.542109 0 0 0 16.465407-16.465407z m0 132.515842a16.363137 16.363137 0 0 0-16.465407-16.260867h-52.592145a16.312002 16.312002 0 0 0-16.260867 16.260867v52.592145a16.490974 16.490974 0 0 0 16.260867 16.465407H808.581602a16.542109 16.542109 0 0 0 16.465407-16.465407z m0 132.311303a16.363137 16.363137 0 0 0-16.465407-16.260867h-52.592145a16.312002 16.312002 0 0 0-16.260867 16.260867v52.617713a16.312002 16.312002 0 0 0 16.260867 16.260867H808.581602a16.490974 16.490974 0 0 0 16.465407-16.260867v-52.617713z m0 132.950489a16.363137 16.363137 0 0 0-16.465407-16.260868h-52.592145a16.312002 16.312002 0 0 0-16.260867 16.260868v52.592145a16.490974 16.490974 0 0 0 16.260867 16.465406H808.581602a16.542109 16.542109 0 0 0 16.465407-16.465406z m0 132.515842a16.542109 16.542109 0 0 0-16.465407-16.465407h-52.592145a16.363137 16.363137 0 0 0-16.260867 16.465407V599.673816a16.490974 16.490974 0 0 0 16.260867 16.414272H808.581602a16.542109 16.542109 0 0 0 16.465407-16.465407z m0 0"  horiz-adv-x="1024" />

    
    <glyph glyph-name="renwu1" unicode="&#58902;" d="M875.374 105.80100000000004h0.183a392.411 392.411 0 0 1-174.958 328.156 268.032 268.032 0 0 1 52.37 159.817c0 146.724-116.553 265.655-260.352 265.655-143.726 0-260.315-118.93-260.315-265.655 0-59.977 19.492-115.347 52.37-159.817A392.411 392.411 0 0 1 109.714 105.79999999999995h0.147v-124.343l-0.074-1.536c0-18.651 14.775-33.682 33.024-33.682a33.353 33.353 0 0 1 32.988 33.646l-0.073 1.572V115.89499999999998a324.498 324.498 0 0 0 156.196 268.873 255.963 255.963 0 0 1 160.695-56.65 255.963 255.963 0 0 1 160.695 56.613 324.462 324.462 0 0 0 156.233-268.726v-134.583c-0.036-0.476-0.11-0.988-0.11-1.5 0-18.651 14.775-33.682 33.024-33.682a33.353 33.353 0 0 1 32.988 33.646l-0.073 1.572V105.80100000000004zM492.617 400.64c-104.521 0-189.257 86.455-189.257 193.134s84.736 193.133 189.257 193.133 189.294-86.454 189.294-193.133-84.773-193.097-189.294-193.097z"  horiz-adv-x="1024" />

    
    <glyph glyph-name="miaosha1" unicode="&#58894;" d="M511.3 794.9c-226.5 0-410-183.5-410-410s183.5-410 410-410 410 183.5 410 410-183.5 410-410 410z m205-455.5H465.8V590c0 25.2 20.4 45.5 45.6 45.5 25.2 0 45.6-20.4 45.6-45.5v-159.5h159.4c25.2 0 45.6-20.4 45.6-45.6-0.1-25.1-20.5-45.5-45.7-45.5z"  horiz-adv-x="1024" />

    
    <glyph glyph-name="gouwuche1" unicode="&#58888;" d="M347.136 112.63999999999999q19.456 0 36.864-7.168t30.72-19.968 20.48-30.208 7.168-36.864-7.168-36.864-20.48-30.208-30.72-20.48-36.864-7.68q-20.48 0-37.376 7.68t-30.208 20.48-20.48 30.208-7.168 36.864 7.168 36.864 20.48 30.208 30.208 19.968 37.376 7.168zM773.12 110.59199999999998q19.456 0 37.376-7.168t30.72-19.968 20.48-30.208 7.68-36.864-7.68-36.864-20.48-30.208-30.72-20.48-37.376-7.68-36.864 7.68-30.208 20.48-20.48 30.208-7.68 36.864 7.68 36.864 20.48 30.208 30.208 19.968 36.864 7.168zM945.152 692.2239999999999q28.672 0 44.544-7.68t22.528-18.944 6.144-24.064-3.584-22.016-12.8-37.888-22.016-62.976-24.064-68.096-17.92-53.248q-13.312-40.96-33.792-56.832t-50.176-15.872l-34.816 0-66.56 0-87.04 0-95.232 0-253.952 0 15.36-92.16 516.096 0q49.152 0 49.152-41.984 0-20.48-9.728-35.328t-38.4-14.848l-49.152 0-95.232 0-117.76 0-119.808 0-98.304 0-56.32 0q-20.48 0-34.304 9.216t-23.04 24.064-14.848 32.256-8.704 32.768q-1.024 6.144-5.632 29.696t-11.264 58.88-14.848 78.848-16.384 87.552q-19.456 103.424-44.032 230.4l-76.8 0q-15.36 0-25.6 7.68t-16.896 18.432-9.216 23.04-2.56 22.528q0 20.48 13.824 33.792t37.376 13.312l22.528 0 20.48 0 25.6 0 34.816 0q20.48 0 32.768-6.144t19.456-15.36 10.24-19.456 5.12-17.408q2.048-8.192 4.096-23.04t4.096-30.208q3.072-18.432 6.144-38.912l700.416 0z"  horiz-adv-x="1024" />

    
    <glyph glyph-name="shouji" unicode="&#59439;" d="M725.333333 767.701333a42.666667 42.666667 0 0 0 42.666667-42.666666v-725.333334a42.666667 42.666667 0 0 0-42.666667-42.666666H298.666667a42.666667 42.666667 0 0 0-42.666667 42.666666v725.333334a42.666667 42.666667 0 0 0 42.666667 42.666666h426.666666z m-213.333333-707.925333a34.133333 34.133333 0 1 1 0-68.266667 34.133333 34.133333 0 0 1 0 68.266667z m170.666667 622.677333H341.333333v-597.248h341.333334V682.453333z"  horiz-adv-x="1024" />

    


  </font>
</defs>
</svg>
